<svg xmlns="http://www.w3.org/2000/svg" width="508" height="604.588" viewBox="0 0 508 604.588">
  <g id="humaaans_sitting-1" data-name="humaaans/sitting-1" transform="translate(-2 -20)">
    <g id="A-Human_Sitting" data-name="A-Human/Sitting" transform="translate(510 624.588) rotate(180)">
      <g id="Head_Front_Airy" data-name="Head/Front/Airy" transform="translate(0 422.102)">
        <g id="Head" transform="translate(202.214)">
          <path id="Path_1" data-name="Path 1" d="M13.583,63.311C6.008,72.2.881,83.1,1.737,95.311,4.206,130.494,53.181,122.754,62.708,105S71.1,42.2,58.79,39.023c-4.91-1.266-15.37,1.835-26.016,8.252L39.456,0H0Z" fill="#b28b67" fill-rule="evenodd"/>
        </g>
        <path id="hair" d="M242.433,64.57c-5.2.853-19.2,1.439-21.784,1.439-1.65,0-3.438-.377-4.416,1.138-.8,1.241-.507,3.339-.746,4.779-.277,1.673-.671,3.324-1.07,4.971a50.539,50.539,0,0,1-5.248,13.331,40.975,40.975,0,0,1-19.422,17.584c-9.194,3.952-19.6,4.857-29.487,4.056-10.583-.858-20.163-4.351-30.155-7.639a63.2,63.2,0,0,0-29.454-2.836c-10.034,1.541-17.616,6.98-26.079,12.141-8.664,5.284-18.566,8.741-28.809,7.946-9.561-.742-18.373-4.69-26.28-9.963-7.4-4.934-13.5-10.871-16.947-19.226-3.707-8.988-3.7-18.853,2.392-26.8C13.764,53.981,30.167,51,43.815,51.3a74.3,74.3,0,0,1,23.1,4.233c9.939,3.5,18.528,9.421,27.826,14.229a72.409,72.409,0,0,0,13.6,5.443c4.588,1.3,9.107,1.89,13.26-.882,4.394-2.932,8.332-5.812,13.359-7.647a43.083,43.083,0,0,1,15.069-2.706c10,.077,19.851,3.192,29.56,5.278,7.918,1.7,16.389,3.4,24.461,1.761,3.368-.682,8.288-2.091,9.5-5.592-20.475-3.711-28.517-29.033-22.745-47.622,3.115-10.033,21.842-21.762,29.124-16.487,4.613,3.342,1.812,7.729,0,10.624-3.471,5.546-4.658,12.67,1.764,16.531,5.54,3.33,11.365-4.578,11.475-4.569,1.523.12,14.679,7.561,23.744,18.418,8.942-.53,10.3,5.366,8.164,10.188S249.618,63.391,242.433,64.57Z" transform="translate(0 60.892)" fill="#191847" fill-rule="evenodd"/>
      </g>
      <g id="Bottom_Sitting_Sweat-Pants" data-name="Bottom/Sitting/Sweat-Pants" transform="translate(58.379 0)">
        <g id="Objects_Seat_Ball" data-name="Objects/Seat/Ball" transform="translate(0)">
          <ellipse id="Ballsy-Ball" cx="127.5" cy="120.5" rx="127.5" ry="120.5" transform="translate(-0.379 0)" fill="#c5cfd6"/>
        </g>
        <path id="Skin" d="M250.5,0c-21.064,46.621-36.3,87.217-42.413,108.636-10.47,36.674-18.435,68.945-20.448,81-4.8,28.738,36.928,30.412,42.443,16.129C238.431,184.144,253,113.12,270.516,5.84ZM6.165,146.311c19.327,7.639,87.007,31.546,119.649,38.309,9.38,1.943,18.472,3.749,27.019,5.381,25.406,4.85,38.569-40.984,14.1-44.506-60.939-8.77-147.329-17.827-154.723-18.844C1.849,125.228-5.981,141.51,6.165,146.311Z" transform="translate(116.114 18.234)" fill="#b28b67" fill-rule="evenodd"/>
        <path id="Leg-Back" d="M104.538,163.127,0,216.343v11.585H12.432q151.7-38.657,155.041-49.547.036-.117.066-.235.076-.1.15-.2C187.732,150.38,199.736,15.806,203.676,5.73L165.269,0c-14.692,54.479-61.7,92.432-60.447,157.681A21.377,21.377,0,0,0,104.538,163.127Z" transform="translate(180.003 57.721)" fill="#1f28cf" fill-rule="evenodd"/>
        <path id="Leg-Front" d="M82.666,41.547c-9.565,1.915-18.373,3.624-25.91,4.946-48.685,8.539-62.882,34.6-54.488,91.46h89.7c14.653-4.209,90.8-36.143,130.312-53.128,26.15-11.242,17.906-51.767,3.1-62.313a1.446,1.446,0,0,0-.822-1.283C144.9-11.788,81.88,5.535,60.828,0L51.091,30.716Z" transform="translate(106.022 147.696)" fill="#2b44ff" fill-rule="evenodd"/>
        <g id="Accessories_Shoe_Flat-Sneaker" data-name="Accessories/Shoe/Flat-Sneaker" transform="matrix(0.438, -0.899, 0.899, 0.438, 106.107, 161.387)">
          <path id="shoe" d="M2.759,24Q0,16.635,0,12.978A82.492,82.492,0,0,1,1.482,0H94.207q3.614,11.949-4.173,12.9T77.1,14.622L34,33.835A1.644,1.644,0,0,1,31.827,33l-.018-.043-2.77-6.72q-7.209-3.364-11.716-3.364-3.662,0-10.114,2.958h0a3.288,3.288,0,0,1-4.359-1.619Q2.8,24.109,2.759,24Z" transform="translate(0 0)" fill="#e4e4e4" fill-rule="evenodd"/>
        </g>
        <g id="Accessories_Shoe_Flat-Sneaker-2" data-name="Accessories/Shoe/Flat-Sneaker" transform="translate(354.268 2.879)">
          <path id="shoe-2" data-name="shoe" d="M2.759,24Q0,16.635,0,12.978A82.492,82.492,0,0,1,1.482,0H94.207q3.614,11.949-4.173,12.9T77.1,14.622L34,33.836A1.644,1.644,0,0,1,31.827,33l-.018-.043-2.77-6.72q-7.209-3.364-11.716-3.364-3.662,0-10.114,2.958h0a3.288,3.288,0,0,1-4.359-1.619Q2.8,24.109,2.759,24Z" transform="translate(0 0)" fill="#e4e4e4" fill-rule="evenodd"/>
        </g>
      </g>
      <g id="Body_Jacket-2" data-name="Body/Jacket-2" transform="translate(18.084 183.72)">
        <path id="Skin-2" data-name="Skin" d="M322.227,146.947l59.57,26.161q15.653,15.6,30.23,23.71c2.906.925,7.871,1.2,2.574-6.532s-10.521-16.113-8.4-18.824,8.248.281,10.67-4.128q2.422-4.409-31-10.549l-44.614-34.206ZM81.392,139.741l33.689-6.684Q64.261,38.349,60.574,32.666C55.042,24.142,60.2,8.521,62.11.294,50.15-2.49,54.866,15.511,39.731,11.753,25.916,8.322,14.2-.482,1.322,11.392c-1.584,1.46-2.743,6.023,2.657,8.363C17.431,25.585,37.306,36.5,40.529,40.742Q47.121,49.412,81.392,139.741Z" transform="translate(0 0)" fill="#b28b67" fill-rule="evenodd"/>
        <path id="Coat-Back" d="M0,162.428,13.949,166.1C47.413,138.873,66.29,68.088,87.679,60.371c20.222-7.3,47.012,3.82,78.732,18.44l11.99-21.53c-26.939-34.795-87.95-67.538-115-54.26C20.145,24.25,2.9,112.082,0,162.428Z" transform="translate(192.486 103.973) rotate(-5)" fill="#c95b20" fill-rule="evenodd"/>
        <path id="Shirt" d="M0,0H125.786c5.748,0,4.665,8.3,3.834,12.488C120.03,60.822,82.6,112.925,82.6,181.728l-36.283,5.689C16.3,139.152,5.926,79.727,0,0Z" transform="translate(144.673 87.133)" fill="#dde3e9" fill-rule="evenodd"/>
        <path id="Coat-Front" d="M91.027,99.9Q52.564,30.521,26.366,0L0,5.164Q25.475,163.157,147.547,238.382h14.366Q210.771,71.834,188.852,16.44H75.625c1.791,27.022,7.535,55.6,15.4,83.461Z" transform="translate(41.1 36.168)" fill="#db6323" fill-rule="evenodd"/>
      </g>
    </g>
  </g>
</svg>
