<svg xmlns="http://www.w3.org/2000/svg" width="67" height="67" viewBox="0 0 67 67">
  <g id="Group_34" data-name="Group 34" transform="translate(-227 -794.75)">
    <circle id="Ellipse_2" data-name="Ellipse 2" cx="33.5" cy="33.5" r="33.5" transform="translate(227 794.75)"/>
    <g id="Group_31" data-name="Group 31" transform="translate(247.197 808.363)">
      <path id="Path_10" data-name="Path 10" d="M164.343,0h0a7.733,7.733,0,0,1,7.733,7.733V19.075a7.733,7.733,0,0,1-7.733,7.733h0a7.733,7.733,0,0,1-7.733-7.733V7.733A7.733,7.733,0,0,1,164.343,0Z" transform="translate(-151.089 0)" fill="#fff"/>
      <path id="Path_11" data-name="Path 11" d="M112.153,224.814a1.289,1.289,0,0,0-2.578-.063c0,.021,0,.042,0,.063a10.676,10.676,0,1,1-21.352,0,1.289,1.289,0,0,0-2.578-.063c0,.021,0,.042,0,.063A13.272,13.272,0,0,0,97.61,238v5.358H92.454a1.289,1.289,0,0,0,0,2.578h12.889a1.289,1.289,0,0,0,0-2.578h-5.155V238A13.271,13.271,0,0,0,112.153,224.814Z" transform="translate(-85.645 -206.104)" fill="#fff"/>
    </g>
  </g>
</svg>
