<svg xmlns="http://www.w3.org/2000/svg" xmlns:xlink="http://www.w3.org/1999/xlink" width="109.661" height="84.046" viewBox="0 0 109.661 84.046">
  <defs>
    <clipPath id="clip-path">
      <rect id="Rectangle_3" data-name="Rectangle 3" width="109.661" height="84.046" fill="none"/>
    </clipPath>
  </defs>
  <g id="PwC_Outline_Logo_Black_CMYK" transform="translate(-305 -931)">
    <g id="Group_5" data-name="Group 5" transform="translate(305 931)">
      <g id="Group_4" data-name="Group 4" clip-path="url(#clip-path)">
        <g id="Group_3" data-name="Group 3" transform="translate(0 0)">
          <g id="Group_2" data-name="Group 2" clip-path="url(#clip-path)">
            <path id="Path_2" data-name="Path 2" d="M376.968,987.657c-3.42.552-5.169,3.079-5.169,7.526,0,4.474,2.329,7.466,5.9,7.466,1.662,0,3.171-.552,6.345-2.109v3.619c-3.809,1.747-6.052,2.288-9.121,2.288-3.323,0-5.661-.883-7.57-2.828a10.239,10.239,0,0,1-2.936-7.421c0-6.4,4.74-10.735,11.665-10.735,4.6,0,7.762,2.1,7.762,5.187A3.338,3.338,0,0,1,380.189,994a6.024,6.024,0,0,1-3.221-.978Zm-16.88,8.54c3.067-3.866,4.15-5.425,4.15-7.324a3.412,3.412,0,0,0-3.5-3.411,4.067,4.067,0,0,0-2.888,1.189v7.876l-5.025,6.7V985.957h-4.778L340.1,999.124V985.957h-2.745l-7.21,1.758v1.843l3.932.4V1006.1h5.083l7.617-12.518V1006.1h5.567Zm-45.124-6.137a19.9,19.9,0,0,1,2.3-.208c3.315,0,5.11,2.2,5.11,6.345,0,4.894-2.195,7.447-6.29,7.447-.342,0-.579,0-1.12-.026Zm0,15.845a31.388,31.388,0,0,0,3.373.2c6.811,0,11.133-4.359,11.133-10.838,0-5.6-3.239-9.652-7.628-9.652-1.9,0-3.173.39-6.878,2.594v-2.7h-2.053l-7.911,2.4v1.938h3.276v22.59l-2.947.733v1.871H318.26v-1.871l-3.3-.733Zm37.867-31.942h19.8v-4.949h-19.8Zm61.83-15.971v11.021H372.626V931h21.428v4.429H398.5v6.588h10.576v15.977Zm-16.16,0h9.025V943.567H398.5Zm-24.323,0h10.36v-3.971h-10.36Zm0-15.977H392.5v-5.037H374.177Zm0,1.551,0,8.9h11.909v5.521H392.5V943.567Zm0,23.9h10.36v-7.919h-10.36Zm11.91,0H392.5v-7.919h-6.416Zm7.967,0h2.895v-7.919h-2.895Zm2.895-23.9h-2.895v14.426h2.895Zm-2.895-1.551h2.895v-5.037h-2.895Zm-19.878-6.588H392.5v-2.878H374.177Zm33.348,24.116H398.5v7.919h9.025Zm5.585,0h-4.034v7.919h4.034Z" transform="translate(-305 -931)" fill="#040504"/>
          </g>
        </g>
      </g>
    </g>
  </g>
</svg>
